<svg width="205" height="48" viewBox="0 0 205 48" fill="none" xmlns="http://www.w3.org/2000/svg">
<path d="M4 35.25V14.25H22.375V16.875H25V32.625H22.375V35.25H4ZM19.75 30V19.5H9.25V30H19.75Z" fill="url(#paint0_linear_1_38)"/>
<path d="M30.25 35.25V32.625H27.625V16.875H32.875V30H38.125V16.875H43.375V32.625H40.75V35.25H30.25Z" fill="url(#paint1_linear_1_38)"/>
<path d="M48.625 35.25V32.625H46V19.5H48.625V16.875H59.125V19.5H61.75V24.75H56.5V22.125H51.25V30H56.5V27.375H61.75V32.625H59.125V35.25H48.625Z" fill="url(#paint2_linear_1_38)"/>
<path d="M74.875 35.25V32.625H72.25V30H69.625V35.25H64.375V14.25H69.625V22.125H72.25V19.5H74.875V16.875H80.125V22.125H77.5V24.75H74.875V27.375H77.5V30H80.125V35.25H74.875Z" fill="url(#paint3_linear_1_38)"/>
<path d="M85.375 43.125V37.875H93.25V35.25H85.375V32.625H82.75V16.875H88V30H93.25V16.875H98.5V40.5H95.875V43.125H85.375Z" fill="url(#paint4_linear_1_38)"/>
<path d="M101.125 30V24.75H116.875V30H101.125Z" fill="url(#paint5_linear_1_38)"/>
<path d="M127.375 35.25V19.5H119.5V14.25H140.5V19.5H132.625V35.25H127.375Z" fill="url(#paint6_linear_1_38)"/>
<path d="M143.125 35.25V30H148.375V22.125H145.75V16.875H153.625V30H158.875V35.25H143.125ZM148.375 14.25V9H153.625V14.25H148.375Z" fill="url(#paint7_linear_1_38)"/>
<path d="M177.25 35.25V22.125H174.625V32.625H169.375V22.125H166.75V35.25H161.5V19.5H164.125V16.875H179.875V19.5H182.5V35.25H177.25Z" fill="url(#paint8_linear_1_38)"/>
<path d="M187.75 35.25V32.625H185.125V19.5H187.75V16.875H198.25V19.5H200.875V27.375H190.375V30H200.875V35.25H187.75Z" fill="url(#paint9_linear_1_38)"/>
<path d="M4 30.25V9.25H22.375V11.875H25V27.625H22.375V30.25H4ZM19.75 25V14.5H9.25V25H19.75Z" fill="white"/>
<path d="M30.25 30.25V27.625H27.625V11.875H32.875V25H38.125V11.875H43.375V27.625H40.75V30.25H30.25Z" fill="white"/>
<path d="M48.625 30.25V27.625H46V14.5H48.625V11.875H59.125V14.5H61.75V19.75H56.5V17.125H51.25V25H56.5V22.375H61.75V27.625H59.125V30.25H48.625Z" fill="white"/>
<path d="M74.875 30.25V27.625H72.25V25H69.625V30.25H64.375V9.25H69.625V17.125H72.25V14.5H74.875V11.875H80.125V17.125H77.5V19.75H74.875V22.375H77.5V25H80.125V30.25H74.875Z" fill="white"/>
<path d="M85.375 38.125V32.875H93.25V30.25H85.375V27.625H82.75V11.875H88V25H93.25V11.875H98.5V35.5H95.875V38.125H85.375Z" fill="white"/>
<path d="M101.125 25V19.75H116.875V25H101.125Z" fill="white"/>
<path d="M127.375 30.25V14.5H119.5V9.25H140.5V14.5H132.625V30.25H127.375Z" fill="white"/>
<path d="M143.125 30.25V25H148.375V17.125H145.75V11.875H153.625V25H158.875V30.25H143.125ZM148.375 9.25V4H153.625V9.25H148.375Z" fill="white"/>
<path d="M177.25 30.25V17.125H174.625V27.625H169.375V17.125H166.75V30.25H161.5V14.5H164.125V11.875H179.875V14.5H182.5V30.25H177.25Z" fill="white"/>
<path d="M187.75 30.25V27.625H185.125V14.5H187.75V11.875H198.25V14.5H200.875V22.375H190.375V25H200.875V30.25H187.75ZM195.625 19.75V17.125H190.375V19.75H195.625Z" fill="white"/>
<path d="M74.875 11.875V14.5H72.25V17.125H69.625V9.25H64.375V35.25H69.625V30H72.25V32.625H74.875V35.25H80.125V25H77.5V22.125H80.125V11.875H74.875ZM101.125 19.75V30H116.875V19.75H101.125ZM19.75 19.5V25H9.25V19.5H19.75ZM32.875 11.875H27.625V32.625H30.25V35.25H40.75V32.625H43.375V11.875H38.125V25H32.875V11.875ZM56.5 22.125V25H51.25V22.125H56.5ZM88 11.875H82.75V32.625H85.375V43.125H95.875V40.5H98.5V11.875H93.25V25H88V11.875ZM148.375 4V11.875H145.75V22.125H148.375V25H143.125V35.25H158.875V25H153.625V4H148.375ZM119.5 19.5H127.375V35.25H132.625V19.5H140.5V9.25H119.5V19.5ZM157.625 10.5H160.125V7.875H179.875V11.875H164.125V14.5H161.5V35.25H166.75V22.125H169.375V32.625H174.625V22.125H177.25V35.25H182.5V14.5H179.875V7.875H198.25V11.875H187.75V14.5H185.125V32.625H187.75V35.25H200.875V14.5H198.25V7.875H202.25V10.5H204.875V39.25H173.25V36.625H170.75V39.25H139.125V23.5H136.625V39.25H123.375V23.5H120.875V34H102.5V44.5H99.875V47.125H81.375V39.25H0V5.25H22.375V9.25H4V35.25H22.375V32.625H25V11.875H22.375V5.25H26.375V7.875H59.125V11.875H48.625V14.5H46V32.625H48.625V35.25H59.125V32.625H61.75V14.5H59.125V7.875H60.375V5.25H73.625V7.875H102.5V15.75H115.5V5.25H144.375V0H157.625V10.5Z" fill="#3C293B"/>
<defs>
<linearGradient id="paint0_linear_1_38" x1="102.438" y1="0" x2="102.438" y2="47.125" gradientUnits="userSpaceOnUse">
<stop stop-color="#FBD11A"/>
<stop offset="1" stop-color="#FF7E00"/>
</linearGradient>
<linearGradient id="paint1_linear_1_38" x1="102.438" y1="0" x2="102.438" y2="47.125" gradientUnits="userSpaceOnUse">
<stop stop-color="#FBD11A"/>
<stop offset="1" stop-color="#FF7E00"/>
</linearGradient>
<linearGradient id="paint2_linear_1_38" x1="102.438" y1="0" x2="102.438" y2="47.125" gradientUnits="userSpaceOnUse">
<stop stop-color="#FBD11A"/>
<stop offset="1" stop-color="#FF7E00"/>
</linearGradient>
<linearGradient id="paint3_linear_1_38" x1="102.438" y1="0" x2="102.438" y2="47.125" gradientUnits="userSpaceOnUse">
<stop stop-color="#FBD11A"/>
<stop offset="1" stop-color="#FF7E00"/>
</linearGradient>
<linearGradient id="paint4_linear_1_38" x1="102.438" y1="0" x2="102.438" y2="47.125" gradientUnits="userSpaceOnUse">
<stop stop-color="#FBD11A"/>
<stop offset="1" stop-color="#FF7E00"/>
</linearGradient>
<linearGradient id="paint5_linear_1_38" x1="102.438" y1="0" x2="102.438" y2="47.125" gradientUnits="userSpaceOnUse">
<stop stop-color="#FBD11A"/>
<stop offset="1" stop-color="#FF7E00"/>
</linearGradient>
<linearGradient id="paint6_linear_1_38" x1="102.438" y1="0" x2="102.438" y2="47.125" gradientUnits="userSpaceOnUse">
<stop stop-color="#FBD11A"/>
<stop offset="1" stop-color="#FF7E00"/>
</linearGradient>
<linearGradient id="paint7_linear_1_38" x1="102.438" y1="0" x2="102.438" y2="47.125" gradientUnits="userSpaceOnUse">
<stop stop-color="#FBD11A"/>
<stop offset="1" stop-color="#FF7E00"/>
</linearGradient>
<linearGradient id="paint8_linear_1_38" x1="102.438" y1="0" x2="102.438" y2="47.125" gradientUnits="userSpaceOnUse">
<stop stop-color="#FBD11A"/>
<stop offset="1" stop-color="#FF7E00"/>
</linearGradient>
<linearGradient id="paint9_linear_1_38" x1="102.438" y1="0" x2="102.438" y2="47.125" gradientUnits="userSpaceOnUse">
<stop stop-color="#FBD11A"/>
<stop offset="1" stop-color="#FF7E00"/>
</linearGradient>
</defs>
</svg>
